<?xml version="1.0" encoding="UTF-8" standalone="no"?>
<!-- Created with Inkscape (http://www.inkscape.org/) -->

<svg
   xmlns:dc="http://purl.org/dc/elements/1.1/"
   xmlns:cc="http://creativecommons.org/ns#"
   xmlns:rdf="http://www.w3.org/1999/02/22-rdf-syntax-ns#"
   xmlns:svg="http://www.w3.org/2000/svg"
   xmlns="http://www.w3.org/2000/svg"
   xmlns:xlink="http://www.w3.org/1999/xlink"
   xmlns:sodipodi="http://sodipodi.sourceforge.net/DTD/sodipodi-0.dtd"
   xmlns:inkscape="http://www.inkscape.org/namespaces/inkscape"
   width="500"
   height="500"
   id="svg2"
   version="1.1"
   inkscape:version="0.48.2 r9819"
   sodipodi:docname="sprite.svg"
   inkscape:export-filename="/Users/tristen/devseed/kenya-bank/img/sprite.png"
   inkscape:export-xdpi="90"
   inkscape:export-ydpi="90">
  <defs
     id="defs4">
    <linearGradient
       inkscape:collect="always"
       id="linearGradient4342-9">
      <stop
         style="stop-color:#8f8f8c;stop-opacity:1"
         offset="0"
         id="stop4344-7" />
      <stop
         style="stop-color:#5b5b58;stop-opacity:1"
         offset="1"
         id="stop4346-16" />
    </linearGradient>
    <linearGradient
       inkscape:collect="always"
       id="linearGradient7044-0">
      <stop
         style="stop-color:#171716;stop-opacity:1"
         offset="0"
         id="stop7046-5" />
      <stop
         style="stop-color:#72726f;stop-opacity:1"
         offset="1"
         id="stop7048-3" />
    </linearGradient>
    <linearGradient
       inkscape:collect="always"
       id="linearGradient7038-6">
      <stop
         style="stop-color:#72726f;stop-opacity:0"
         offset="0"
         id="stop7040-3" />
      <stop
         style="stop-color:#ffffff;stop-opacity:1"
         offset="1"
         id="stop7042-2" />
    </linearGradient>
    <linearGradient
       inkscape:collect="always"
       id="linearGradient8396-5">
      <stop
         style="stop-color:#a8a8a3;stop-opacity:1;"
         offset="0"
         id="stop8398-9" />
      <stop
         style="stop-color:#a8a8a3;stop-opacity:0;"
         offset="1"
         id="stop8400-5" />
    </linearGradient>
    <linearGradient
       id="linearGradient5297-6"
       inkscape:collect="always">
      <stop
         id="stop5299-3-3"
         offset="0"
         style="stop-color:#ffffff;stop-opacity:1" />
      <stop
         id="stop5301-7-0"
         offset="1"
         style="stop-color:#b6b6b6;stop-opacity:1" />
    </linearGradient>
    <linearGradient
       inkscape:collect="always"
       id="linearGradient3937-9">
      <stop
         style="stop-color:#fbfaf7;stop-opacity:1"
         offset="0"
         id="stop3939-2-1" />
      <stop
         style="stop-color:#cccccc;stop-opacity:1"
         offset="1"
         id="stop3941-0" />
    </linearGradient>
    <linearGradient
       inkscape:collect="always"
       xlink:href="#linearGradient10293"
       id="linearGradient34545"
       gradientUnits="userSpaceOnUse"
       gradientTransform="matrix(1.0004977,0,0,1,-418.28618,903.36218)"
       x1="509"
       y1="40"
       x2="509"
       y2="53" />
    <linearGradient
       inkscape:collect="always"
       id="linearGradient10293">
      <stop
         style="stop-color:#f39f6e;stop-opacity:1;"
         offset="0"
         id="stop10295" />
      <stop
         style="stop-color:#f39f6e;stop-opacity:0;"
         offset="1"
         id="stop10297" />
    </linearGradient>
    <clipPath
       clipPathUnits="userSpaceOnUse"
       id="clipPath7376">
      <path
         inkscape:connector-curvature="0"
         id="path7378"
         d="m 2.2756428,556.84053 c -1.61263,0.40208 -2.587196,2.02402 -2.18512,3.63666 l 5.08036,20.3762 c 0.402076,1.61264 2.02402,2.58721 3.636653,2.18511 l 6.7920672,-1.69344 1.937985,3.63924 3.883794,-5.09078 4.851475,-1.2096 c 1.612633,-0.40207 2.587197,-2.02402 2.185124,-3.63665 l -5.080357,-20.37623 c -0.402079,-1.61262 -2.024025,-2.5872 -3.636654,-2.18512 l -17.4653272,4.35461 z"
         style="color:#000000;fill:#ff0000;fill-opacity:1;fill-rule:nonzero;stroke:none;stroke-width:2.173913;marker:none;visibility:visible;display:inline;overflow:visible;enable-background:accumulate" />
    </clipPath>
    <linearGradient
       inkscape:collect="always"
       xlink:href="#linearGradient3937-9"
       id="linearGradient7389"
       gradientUnits="userSpaceOnUse"
       gradientTransform="matrix(0.56988622,0,0,0.56960273,210.38696,539.96682)"
       x1="341.44745"
       y1="77.554153"
       x2="343.31165"
       y2="69.840584" />
    <linearGradient
       inkscape:collect="always"
       xlink:href="#linearGradient5297-6"
       id="linearGradient7396"
       gradientUnits="userSpaceOnUse"
       gradientTransform="matrix(0.56988622,0,0,0.56960273,210.38696,541.20495)"
       x1="371.68759"
       y1="64.812393"
       x2="366.97559"
       y2="85.182846" />
    <linearGradient
       inkscape:collect="always"
       xlink:href="#linearGradient8396-5"
       id="linearGradient7401"
       gradientUnits="userSpaceOnUse"
       gradientTransform="matrix(0.56988622,0,0,0.56960273,164.79605,531.99238)"
       x1="375.37088"
       y1="129.07449"
       x2="509.526"
       y2="68.416519" />
    <linearGradient
       inkscape:collect="always"
       xlink:href="#linearGradient7038-6"
       id="linearGradient7410"
       gradientUnits="userSpaceOnUse"
       gradientTransform="matrix(0.52346335,0,0,0.52320296,170.06082,529.95782)"
       x1="564.44708"
       y1="81.68457"
       x2="575.07733"
       y2="56.943146" />
    <linearGradient
       inkscape:collect="always"
       xlink:href="#linearGradient7044-0"
       id="linearGradient7413"
       gradientUnits="userSpaceOnUse"
       gradientTransform="matrix(0.56261983,0,0,0.56233996,161.90231,527.41314)"
       x1="476.67953"
       y1="106.434"
       x2="524.17358"
       y2="70.313667" />
    <linearGradient
       inkscape:collect="always"
       xlink:href="#linearGradient4342-9"
       id="linearGradient7418"
       gradientUnits="userSpaceOnUse"
       gradientTransform="matrix(0.47055991,0,0,0.47032583,215.072,541.34513)"
       x1="588.59375"
       y1="60.359024"
       x2="527.08075"
       y2="95.873573" />
  </defs>
  <sodipodi:namedview
     id="base"
     pagecolor="#ffffff"
     bordercolor="#666666"
     borderopacity="1.0"
     inkscape:pageopacity="0.0"
     inkscape:pageshadow="2"
     inkscape:zoom="1.4142136"
     inkscape:cx="-88.83788"
     inkscape:cy="947.44482"
     inkscape:document-units="px"
     inkscape:current-layer="layer1"
     showgrid="true"
     inkscape:window-width="1280"
     inkscape:window-height="752"
     inkscape:window-x="29"
     inkscape:window-y="0"
     inkscape:window-maximized="0"
     guidecolor="#0000f4"
     guideopacity="0.49803922"
     showguides="true"
     inkscape:guide-bbox="true">
    <inkscape:grid
       type="xygrid"
       id="grid3004"
       empspacing="5"
       visible="true"
       enabled="true"
       snapvisiblegridlinesonly="true"
       color="#000000"
       opacity="0.03137255"
       empcolor="#000000"
       empopacity="0.1372549" />
  </sodipodi:namedview>
  <metadata
     id="metadata7">
    <rdf:RDF>
      <cc:Work
         rdf:about="">
        <dc:format>image/svg+xml</dc:format>
        <dc:type
           rdf:resource="http://purl.org/dc/dcmitype/StillImage" />
        <dc:title></dc:title>
      </cc:Work>
    </rdf:RDF>
  </metadata>
  <g
     inkscape:groupmode="layer"
     id="layer2"
     inkscape:label="base"
     style="display:inline">
    <rect
       style="color:#000000;fill:#cccccc;fill-opacity:1;fill-rule:nonzero;stroke:none;stroke-width:2.17391300000000021;marker:none;visibility:visible;display:inline;overflow:visible;enable-background:accumulate"
       id="rect7372"
       width="500"
       height="500"
       x="0"
       y="0" />
  </g>
  <g
     inkscape:label="Layer 1"
     inkscape:groupmode="layer"
     id="layer1"
     transform="translate(0,-552.36218)">
    <rect
       inkscape:export-ydpi="90"
       inkscape:export-xdpi="90"
       inkscape:export-filename="/Users/mayarichman/Projects/kenya-bank/img/sidebar-bg.png"
       y="272.36218"
       x="-60"
       height="1505"
       width="5"
       id="rect4421"
       style="opacity:0.85;color:#000000;fill:#0091d5;fill-opacity:1;fill-rule:nonzero;stroke:none;stroke-width:2.17391300000000021;marker:none;visibility:visible;display:inline;overflow:visible;enable-background:accumulate" />
    <rect
       inkscape:export-ydpi="90"
       inkscape:export-xdpi="90"
       inkscape:export-filename="/Users/mayarichman/Projects/kenya-bank/img/sidebar-bg.png"
       y="597.36218"
       x="-60"
       height="1179.9999"
       width="5"
       id="rect5191"
       style="color:#000000;fill:#ffffff;fill-opacity:1;fill-rule:nonzero;stroke:none;stroke-width:2.173913;marker:none;visibility:visible;display:inline;overflow:visible;enable-background:accumulate" />
    <path
       sodipodi:nodetypes="csccccssccccsc"
       id="path4082-1-8"
       d="m 457.55899,558.47198 c -5.99993,0.002 -5.97175,0.9173 -10.44702,3.4998 -2.90246,1.6749 -4.04385,3.42454 -3.97213,5.06295 l -0.0143,0 -6.59005,13.22454 0.0142,0 c -0.16608,2.98699 3.7587,5.66689 8.6224,6.97194 7.37763,1.97966 21.59949,1.93836 29.10571,-2.39313 2.52729,-1.45842 3.49164,-3.04433 3.43235,-4.57881 l 0.0143,0 -6.59007,-13.22454 -0.0143,0 c 0.18765,-3.14803 2.507,-6.11986 -1.81086,-7.27627 -2.74777,-0.7359 -7.08364,-1.28806 -11.75032,-1.28649 z"
       style="color:#000000;fill:#3e3e3d;fill-opacity:1;fill-rule:nonzero;stroke:none;stroke-width:1;marker:none;visibility:visible;display:inline;overflow:visible;enable-background:accumulate"
       inkscape:connector-curvature="0" />
    <path
       sodipodi:nodetypes="ccccscsccccc"
       id="path4082-1-5-5"
       d="m 443.26535,563.85588 -6.73422,3.47864 0,12.92656 0.0205,0 c -0.16606,2.98701 3.76518,5.67281 8.62886,6.97787 0.24737,0.0664 0.52029,0.1235 0.78255,0.18528 5.84256,0.26954 12.23108,-0.37033 17.48426,-2.42891 7.84616,-3.07462 9.86258,-10.99339 10.97658,-12.76187 l 0,-0.45285 -13.07714,-3.72565 -18.08149,-4.19907 z"
       style="color:#000000;fill:#000000;fill-opacity:0.25333336;fill-rule:nonzero;stroke:none;stroke-width:0.75973278;marker:none;visibility:visible;display:inline;overflow:visible;enable-background:accumulate"
       inkscape:connector-curvature="0" />
    <path
       sodipodi:type="arc"
       style="color:#000000;fill:#000000;fill-opacity:0.16470588;fill-rule:nonzero;stroke:none;stroke-width:0.92009801;marker:none;visibility:visible;display:inline;overflow:visible;enable-background:accumulate"
       id="path4485-9"
       sodipodi:cx="560.40222"
       sodipodi:cy="108.11219"
       sodipodi:rx="66.447914"
       sodipodi:ry="25.814034"
       d="m 626.85014,108.11219 c 0,14.2567 -29.74975,25.81403 -66.44792,25.81403 -36.69817,0 -66.44791,-11.55733 -66.44791,-25.81403 0,-14.256697 29.74974,-25.814033 66.44791,-25.814033 36.69817,0 66.44792,11.557336 66.44792,25.814033 z"
       transform="matrix(0.59890507,0,0,0.59860713,119.04289,517.41671)" />
    <path
       style="color:#000000;fill:url(#linearGradient7418);fill-opacity:1;fill-rule:nonzero;stroke:none;stroke-width:1;marker:none;visibility:visible;display:inline;overflow:visible;enable-background:accumulate"
       d="m 451.17543,552.5859 -14.08738,8.12783 -14.88147,8.56874 0,1.41097 40.89461,10.96448 28.93944,-16.71126 0,-1.41098 z"
       id="path4206-2"
       inkscape:connector-curvature="0"
       sodipodi:nodetypes="cccccccc" />
    <path
       id="path4206-6-2"
       d="m 430.45349,566.11236 -0.85339,5.15327 6.29369,3.09198 27.20155,7.30344 0,-3.44737 -32.64185,-12.10132 z"
       style="opacity:0.2;color:#000000;fill:#000000;fill-opacity:1;fill-rule:nonzero;stroke:none;stroke-width:1.79999995;marker:none;visibility:visible;display:inline;overflow:visible;enable-background:accumulate"
       inkscape:connector-curvature="0" />
    <path
       style="color:#000000;fill:#72726f;fill-opacity:1;fill-rule:nonzero;stroke:none;stroke-width:1;marker:none;visibility:visible;display:inline;overflow:visible;enable-background:accumulate"
       d="m 437.08839,560.71948 14.08399,-8.12735 40.87483,10.94693 -28.95214,16.70721 -40.8824,-10.97009 z"
       id="path4054-3"
       inkscape:connector-curvature="0"
       sodipodi:nodetypes="cccccc" />
    <path
       sodipodi:nodetypes="ccccc"
       inkscape:connector-curvature="0"
       id="path4332-1"
       d="m 451.12815,553.82593 22.29066,18.91445 -10.37194,6.45529 -38.42021,-10.10189 z"
       style="color:#000000;fill:url(#linearGradient7413);fill-opacity:1;fill-rule:nonzero;stroke:none;stroke-width:1;marker:none;visibility:visible;display:inline;overflow:visible;enable-background:accumulate" />
    <path
       style="opacity:0.3;color:#000000;fill:url(#linearGradient7410);fill-opacity:1;fill-rule:nonzero;stroke:none;stroke-width:2;marker:none;visibility:visible;display:inline;overflow:visible;enable-background:accumulate"
       d="m 451.6823,553.51933 38.08982,10.31981 -22.14251,12.44271 -29.63436,-15.18998 z"
       id="path5739-4"
       inkscape:connector-curvature="0"
       sodipodi:nodetypes="ccccc" />
    <path
       sodipodi:nodetypes="ssccsccs"
       inkscape:connector-curvature="0"
       id="path4082-6-1"
       d="m 457.21319,564.71725 c -0.58616,0.0196 -1.20229,0.16367 -1.61946,0.43409 -0.57548,0.373 -0.42253,0.8038 -0.41493,1.45265 0.028,0.29685 0.42723,0.55645 0.922,0.6892 0.79866,0.21431 2.32823,0.2073 3.14079,-0.26159 0.22727,-0.13115 0.33784,-0.27204 0.36451,-0.41101 0.0957,-0.97989 -0.12518,-1.37215 -0.90434,-1.69815 -0.52092,-0.13781 -1.0401,-0.2202 -1.48857,-0.20519 z"
       style="color:#000000;fill:#3e3e3d;fill-opacity:1;fill-rule:nonzero;stroke:none;stroke-width:1;marker:none;visibility:visible;display:inline;overflow:visible;enable-background:accumulate" />
    <path
       sodipodi:nodetypes="zzzzz"
       inkscape:connector-curvature="0"
       id="path4213-4"
       d="m 456.09194,565.29884 c 0.62189,-0.35887 1.75843,-0.30441 2.24936,-0.17292 0.49092,0.13148 0.97515,0.56236 0.38842,0.90094 -0.58673,0.33858 -1.69846,0.34165 -2.27514,0.18692 -0.57669,-0.15476 -0.98452,-0.55608 -0.36264,-0.91494 z"
       style="color:#000000;fill:#72726f;fill-opacity:1;fill-rule:nonzero;stroke:none;stroke-width:1;marker:none;visibility:visible;display:inline;overflow:visible;enable-background:accumulate" />
    <path
       style="color:#000000;fill:#3e3e3d;fill-opacity:1;fill-rule:nonzero;stroke:none;stroke-width:2;marker:none;visibility:visible;display:inline;overflow:visible;enable-background:accumulate"
       d="m 459.57933,566.04046 -0.71615,1.08337 19.16193,5.74572 2.59364,3.9659 c -0.13374,0.27292 -0.21291,0.56551 -0.21291,0.8899 0,1.02817 0.75634,1.87794 1.74199,2.03132 l 2.10974,7.62224 7.41317,1.41229 2.22587,0.59969 1.60651,-0.92861 2.20652,-0.30953 0.36775,-0.90921 1.58716,-0.92862 -0.61938,-2.41824 -8.05189,0.0387 -1.7807,-0.77385 -1.72264,0.32888 -3.34849,-4.70104 c 0.12005,-0.26121 0.19354,-0.56427 0.19354,-0.87055 0,-1.13673 -0.93373,-2.05066 -2.07102,-2.05066 -0.0812,0 -0.15357,0.0101 -0.23227,0.0193 l -2.67106,-4.25608 z"
       id="path8378-1"
       inkscape:connector-curvature="0"
       sodipodi:nodetypes="ccccscccccccccccccssccc" />
    <path
       sodipodi:nodetypes="cccccc"
       inkscape:connector-curvature="0"
       style="color:#000000;fill:#000000;fill-opacity:0.25333336;fill-rule:nonzero;stroke:none;stroke-width:1;marker:none;visibility:visible;display:inline;overflow:visible;enable-background:accumulate"
       d="m 457.03172,570.0986 -14.83846,-4.36082 -10.14854,7.58928 15.38694,4.12962 -0.53488,-1.53665 z"
       id="path4550-6" />
    <path
       style="color:#000000;fill:#3e3e3d;fill-opacity:1;fill-rule:nonzero;stroke:none;stroke-width:1;marker:none;visibility:visible;display:inline;overflow:visible;enable-background:accumulate"
       d="m 444.33634,561.60533 -53.50257,19.22428 -15.22446,4.44578 0,1.13921 31.36156,8.36601 21.75684,-7.65997 2.29032,0.66254 1.72748,-0.99678 2.77266,-1.44328 2.03716,-3.5074 17.33262,-15.86541 0.0387,-1.65544 z"
       id="path4027-2"
       inkscape:connector-curvature="0"
       sodipodi:nodetypes="ccccccccccccc" />
    <path
       inkscape:connector-curvature="0"
       id="path5719-5"
       d="m 406.97087,594.78061 0,-4.5044 -31.36156,-5.00082 0,1.13921 z"
       style="opacity:0.15;color:#000000;fill:#000000;fill-opacity:1;fill-rule:nonzero;stroke:none;stroke-width:2;marker:none;visibility:visible;display:inline;overflow:visible;enable-background:accumulate" />
    <path
       sodipodi:nodetypes="ccsccccccc"
       inkscape:connector-curvature="0"
       id="path3906-4"
       d="m 442.47713,560.9807 12.44953,3.33417 c 0,0 -14.77209,13.36633 -18.72852,17.07253 -1.38168,1.2943 -1.72437,2.70388 -1.72437,2.70388 l -3.44872,1.99013 -1.72437,-0.71372 -22.33254,8.277 -31.35913,-8.37325 15.21802,-4.44904 z"
       style="color:#000000;fill:url(#linearGradient7401);fill-opacity:1;fill-rule:nonzero;stroke:none;stroke-width:1;marker:none;visibility:visible;display:inline;overflow:visible;enable-background:accumulate" />
    <path
       inkscape:connector-curvature="0"
       id="path5699-7"
       d="m 406.50311,592.50684 -2.14147,0.44579 -28.75233,-7.67724 8.97946,-2.69767 z"
       style="opacity:0.15;color:#000000;fill:#000000;fill-opacity:1;fill-rule:nonzero;stroke:none;stroke-width:2;marker:none;visibility:visible;display:inline;overflow:visible;enable-background:accumulate"
       sodipodi:nodetypes="ccccc" />
    <path
       sodipodi:nodetypes="ccccccsccccc"
       inkscape:connector-curvature="0"
       id="path3863-0-3"
       d="m 423.63459,554.24956 -19.94934,19.7647 0,1.04028 26.68186,8.1435 0.76018,1.39284 1.68786,-0.83978 c 0,0 0.77083,-2.1368 1.50703,-2.80456 6.15818,-5.58577 18.10503,-16.59778 18.10503,-16.59778 l -0.64814,-0.43635 0.0387,-1.27682 -0.55084,-1.21923 z"
       style="color:#000000;fill:#b3b3b3;fill-opacity:1;fill-rule:nonzero;stroke:none;stroke-width:1;marker:none;visibility:visible;display:inline;overflow:visible;enable-background:accumulate" />
    <path
       sodipodi:nodetypes="ccccccc"
       inkscape:connector-curvature="0"
       id="path3089-7-2"
       d="m 431.76996,581.54369 c 0.5271,-1.42118 1.00602,-2.33353 2.19173,-3.80945 l 17.28473,-16.31788 -27.61183,-7.1668 -17.84838,16.33531 -2.66346,3.43069 z"
       style="color:#000000;fill:url(#linearGradient7396);fill-opacity:1;fill-rule:nonzero;stroke:none;stroke-width:1;marker:none;visibility:visible;display:inline;overflow:visible;enable-background:accumulate" />
    <path
       id="path3089-7-1-7"
       d="m 409.31313,567.35597 -3.52269,3.23076 -2.67105,3.42422 28.64611,7.52555 c 0.5271,-1.42118 1.00145,-2.33523 2.18717,-3.81115 l 10.99391,-10.36938 -35.63345,0 z"
       style="color:#000000;fill:#000000;fill-opacity:0.11555553;fill-rule:nonzero;stroke:none;stroke-width:1;marker:none;visibility:visible;display:inline;overflow:visible;enable-background:accumulate"
       inkscape:connector-curvature="0" />
    <path
       sodipodi:nodetypes="ccccccccscccsc"
       inkscape:connector-curvature="0"
       id="path3863-5"
       d="m 403.70306,572.79393 -19.70802,7.60113 -5.57695,-1.1176 1.09029,1.42401 -1.09029,1.42401 1.09029,1.424 -1.09029,1.42399 28.08471,7.52947 c 0,0 15.47427,-5.72793 23.1891,-8.65616 0.50388,-0.19127 1.43539,0.7441 1.43539,0.7441 l 0.69843,-0.38308 -0.0558,-0.82624 c 0,-2.8189 0.53373,-3.0708 -5.04211,-4.5641 -6.64188,-1.7788 -16.66418,-4.06209 -23.02477,-6.02353 z"
       style="color:#000000;fill:#b3b3b3;fill-opacity:1;fill-rule:nonzero;stroke:none;stroke-width:1;marker:none;visibility:visible;display:inline;overflow:visible;enable-background:accumulate" />
    <path
       style="font-size:medium;font-style:normal;font-variant:normal;font-weight:normal;font-stretch:normal;text-indent:0;text-align:start;text-decoration:none;line-height:normal;letter-spacing:normal;word-spacing:normal;text-transform:none;direction:ltr;block-progression:tb;writing-mode:lr-tb;text-anchor:start;baseline-shift:baseline;opacity:0.2;color:#000000;fill:#000000;fill-opacity:1;fill-rule:nonzero;stroke:none;stroke-width:1;marker:none;visibility:visible;display:inline;overflow:visible;enable-background:accumulate;font-family:Sans;-inkscape-font-specification:Sans"
       d="m 451.54249,562.02628 c -0.57104,0.47048 -1.26845,1.06671 -1.4667,1.24773 -1.75985,1.60695 -5.39367,4.91097 -8.70996,7.95114 -3.31627,3.04017 -6.3123,5.78682 -6.81312,6.2874 -1.86093,1.86 -2.44849,3.49414 -2.64202,6.06493 -0.25959,-1.43165 -0.70802,-2.20883 -1.20973,-2.75678 -0.81187,-0.88671 -2.99793,-0.56433 -3.62663,-0.33978 -0.0862,0.0308 -0.1845,0.028 -0.27098,0.058 -6.91225,2.40636 -22.15487,7.74927 -22.15487,7.74927 l 0.13549,0.34823 c 0,0 15.22453,-5.34334 22.13552,-7.74923 1.15901,-0.4035 3.00267,-0.43375 3.47178,0.16564 0.65918,0.84223 0.88218,1.60397 1.10326,2.30216 -0.182,-0.26897 -0.38832,-0.56216 -0.63873,-0.87057 -0.32194,-0.39651 -0.68372,-0.80723 -1.06455,-1.06402 -0.55049,-0.3712 -1.72224,-0.0932 -2.10914,0.044 -7.49264,2.65418 -23.01427,8.06203 -23.01427,8.06203 l 0.11613,0.34823 c 0,0 15.5381,-5.40681 23.03363,-8.06203 0.21364,-0.0757 1.25813,-0.44018 1.76073,-0.0826 0.32828,0.23355 0.67686,0.60451 0.98714,0.98665 0.15515,0.19107 0.2933,0.37648 0.42582,0.56102 -0.044,-0.0546 -0.0867,-0.10116 -0.13549,-0.15476 -0.2608,-0.28695 -0.60045,-0.54282 -1.00648,-0.69645 -0.40604,-0.15364 -0.88462,-0.18484 -1.41295,0 -8.00093,2.79913 -23.78789,8.33807 -23.78789,8.33807 l 0.13549,0.34822 c 0,0 15.76813,-5.53911 23.76854,-8.33808 0.4521,-0.15818 0.82879,-0.12581 1.16132,0 0.33253,0.12582 0.61792,0.34258 0.85164,0.59973 0.32842,0.36133 0.49794,0.69883 0.60003,0.90922 -0.0823,-0.13614 -0.19358,-0.31249 -0.32905,-0.48362 -0.13547,-0.17112 -0.28385,-0.34449 -0.46453,-0.46429 -0.18068,-0.11982 -0.41497,-0.19282 -0.63873,-0.11608 -7.3956,2.53602 -19.6322,6.85927 -23.71048,8.29935 l 0.1355,0.34822 c 4.07794,-1.43995 16.29886,-5.76451 23.69111,-8.29935 0.0826,-0.0283 0.18292,-0.006 0.3097,0.0775 0.12676,0.084 0.26582,0.23371 0.38709,0.38692 0.24258,0.30645 0.58119,0.55878 0.58119,0.55878 l 0.98658,-0.44268 0.38715,-0.25151 c -0.0566,-3.14989 0.96118,-4.74856 2.32262,-6.11325 0.45759,-0.45736 3.45848,-3.2282 6.77443,-6.26805 3.31592,-3.03986 6.96956,-6.36362 8.72931,-7.97049 0.18004,-0.16441 0.7911,-0.69327 1.37203,-1.17131 z m 0.2753,0.99622 c -0.52538,0.4282 -1.2589,1.01844 -1.39359,1.14141 -1.52185,1.38942 -5.22874,4.79772 -8.69061,7.9705 -3.46187,3.17276 -6.66133,6.09699 -7.18088,6.61628 -1.30269,1.30203 -1.63327,2.23929 -1.91769,3.02947 -0.28444,0.7902 -0.50176,1.00162 -0.50176,2.21326 l 0.17421,0 0.19356,-0.0968 c -0.002,-1.15213 0.23755,-1.32038 0.48238,-2.00044 0.25289,-0.70258 0.54932,-1.58439 1.84026,-2.8747 0.47471,-0.47446 3.70001,-3.44383 7.16154,-6.61629 3.46154,-3.17247 7.16885,-6.56182 8.69062,-7.95115 0.0829,-0.0757 0.79258,-0.67844 1.14553,-0.97088 z m 0.10398,0.98596 c -0.57615,0.4793 -1.50768,1.41791 -1.67173,1.56769 -1.65565,1.5117 -5.34514,4.8685 -8.72933,7.9705 -3.38418,3.10201 -6.45848,5.93294 -6.96796,6.44217 -0.536,0.53573 -1.01169,0.98962 -1.36457,1.58637 -0.35288,0.59673 -0.86133,1.0841 -0.86133,2.3215 l 0.17421,0 0.31413,-0.14559 c 0.0452,-0.90815 0.43298,-1.5468 0.70203,-2.0018 0.3139,-0.53083 0.75858,-0.94199 1.30649,-1.48963 0.4655,-0.46527 3.56478,-3.34048 6.94862,-6.44217 3.38384,-3.1017 7.07378,-6.45891 8.72932,-7.9705 0.14385,-0.13134 1.1395,-1.14993 1.72285,-1.63474 z"
       id="path7955-8"
       inkscape:connector-curvature="0"
       sodipodi:nodetypes="cssscsscccsscsssccssccsssccsssccssccccsccccsscccssssccccssscccsssscccsssscc" />
    <path
       inkscape:connector-curvature="0"
       style="color:#000000;fill:#8f8f8f;fill-opacity:1;fill-rule:nonzero;stroke:none;stroke-width:1;marker:none;visibility:visible;display:inline;overflow:visible;enable-background:accumulate"
       d="m 394.33469,576.3614 -10.3552,4.04328 -5.57437,-1.12206 1.10326,1.42193 -1.10326,1.42191 1.10326,1.42192 -1.10326,1.42193 28.08481,7.5255 1.12262,-1.42187 -1.20004,-1.42193 1.02584,-1.42194 -0.94842,-1.42194 z"
       id="path3863-8-0"
       sodipodi:nodetypes="ccccccccccccc" />
    <path
       sodipodi:nodetypes="csccccscc"
       inkscape:connector-curvature="0"
       id="path3089-4"
       d="m 406.50306,586.79836 c 0,0 14.45572,-5.22094 21.34374,-7.06567 1.43177,-0.38345 3.92845,0.57886 3.92845,0.57886 l -2.43639,-0.76849 -1.04133,-0.29837 -24.59986,-6.45277 c -1.1088,-0.58032 -2.67593,-0.99348 -3.92845,-0.57884 l -21.34374,7.06568 z"
       style="color:#000000;fill:url(#linearGradient7389);fill-opacity:1;fill-rule:nonzero;stroke:none;stroke-width:1;marker:none;visibility:visible;display:inline;overflow:visible;enable-background:accumulate" />
    <path
       inkscape:connector-curvature="0"
       id="path7366-5"
       d="m 423.75749,555.68685 -15.9385,14.80889 0.70933,0.20011 15.9385,-14.8089 -0.70933,-0.2001 z m 2.1452,0.65901 -5.0522,4.69413 0.68998,0.19941 3.68891,-3.42748 1.3633,-1.26667 -0.68999,-0.19939 z m 4.2911,1.29866 -3.40823,3.16668 0.68999,0.19941 3.38818,-3.14807 -0.66994,-0.21802 z m 2.14521,0.659 -5.0923,4.7314 0.67063,0.19868 5.07225,-4.71276 -0.65058,-0.21732 z m -5.6537,-0.0513 -7.5783,7.0412 0.68927,0.21872 7.57831,-7.0412 -0.68928,-0.21872 z m 7.76021,0.70891 -2.84689,2.64511 0.68929,0.21872 2.84687,-2.6451 -0.68927,-0.21873 z m 2.14519,0.659 -15.9385,14.8089 0.68929,0.21872 15.93919,-14.82823 -0.68998,-0.19939 z m 2.12586,0.6583 -12.69136,11.81057 0.66995,0.21801 10.54546,-9.79809 2.18526,-2.03039 -0.70931,-0.2001 z m 4.2904,1.318 -9.20222,8.55003 0.66993,0.21803 9.20293,-8.56937 -0.67064,-0.19869 z m -16.84219,-0.22709 -4.91257,4.58307 -6.9969,6.50102 0.66993,0.21802 11.92881,-11.08338 -0.68927,-0.21873 z m 18.98809,0.86675 -4.91186,4.56375 0.68997,0.1994 4.89182,-4.54513 -0.66993,-0.21802 z m -24.90383,-0.63725 -7.87903,7.32062 0.68999,0.19939 7.85899,-7.302 -0.66995,-0.21801 z m 10.7281,0.58486 -4.57104,4.24707 0.68927,0.21873 4.57104,-4.24708 -0.68927,-0.21872 z m 16.30158,0.71069 -3.04735,2.83138 0.70932,0.20011 3.02731,-2.81277 -0.68928,-0.21872 z m -8.58217,0.0548 -13.77327,12.7971 0.68998,0.1994 13.77254,-12.77778 -0.68925,-0.21872 z m -12.0513,0.64454 -10.26408,9.51797 0.66992,0.21801 10.2648,-9.53728 -0.67064,-0.1987 z m 16.98466,2.69085 -9.08192,8.43827 0.42863,0.46089 9.34257,-8.68044 -0.68928,-0.21872 z m -25.1444,-0.41373 -3.98963,3.70688 0.0387,10e-4 -0.0788,0.0359 -2.34566,2.17943 0.66994,0.21801 6.39544,-5.94218 -0.68998,-0.1994 z m 21.15404,1.4878 -10.42517,9.68631 0.66993,0.21803 10.42518,-9.68633 -0.66994,-0.21801 z m -13.85495,-0.35046 -7.27758,6.7618 0.68927,0.21873 7.27758,-6.76179 -0.68927,-0.21874 z m -14.01604,2.47007 -1.80435,1.67648 0.68998,0.19939 1.7843,-1.65784 -0.66993,-0.21803 z m 21.41468,1.24565 -6.11478,5.68139 0.68999,0.19939 6.11478,-5.6814 -0.68999,-0.19938 z m -7.77952,1.94251 -2.6063,2.42158 0.68998,0.1994 2.60629,-2.42159 -0.68997,-0.19939 z"
       style="font-size:medium;font-style:normal;font-variant:normal;font-weight:normal;font-stretch:normal;text-indent:0;text-align:start;text-decoration:none;line-height:normal;letter-spacing:normal;word-spacing:normal;text-transform:none;direction:ltr;block-progression:tb;writing-mode:lr-tb;text-anchor:start;baseline-shift:baseline;opacity:0.2;color:#000000;fill:#000000;fill-opacity:1;stroke:none;stroke-width:1;marker:none;visibility:visible;display:inline;overflow:visible;enable-background:accumulate;font-family:Sans;-inkscape-font-specification:Sans" />
    <path
       id="path7394-0"
       d="m 399.71282,573.1017 -2.86461,1.00598 1.06455,0.27083 2.8646,-1.00598 z m 2.57428,0.69645 -7.2196,2.51495 1.08391,0.2902 7.20023,-2.53432 z m -6.32925,0.61906 -5.36148,1.85721 1.06456,0.29018 5.34212,-1.87654 z m 8.90354,0.058 -15.98765,5.59095 1.08391,0.29019 15.96828,-5.59096 z m 2.59362,0.69644 -5.43888,1.8959 1.06455,0.29019 5.41952,-1.8959 z m 2.57428,0.69646 -16.00699,5.59095 1.08391,0.29019 15.96827,-5.6103 z m 2.57428,0.6771 -1.56779,0.54168 1.06455,0.29019 1.56779,-0.54167 z m -22.87819,0.0387 -6.01956,2.1087 1.08392,0.2902 6.01955,-2.10871 z m 4.45177,0.0387 -5.14857,1.77983 1.10327,0.30953 5.1292,-1.79917 z m 21.00069,0.61907 -16.00698,5.59096 1.06455,0.29019 4.66468,-1.62506 0.83229,-0.29019 0.0387,-0.0193 8.22608,-2.88252 0.0968,-0.0193 2.12911,-0.75448 -1.0452,-0.29019 z m -14.05207,0.13543 -6.07763,2.12805 1.08392,0.29017 6.05826,-2.12804 z m 9.039,0.0193 -5.88407,2.05066 1.08392,0.29018 5.86471,-2.05065 z m 10.16164,1.23812 -4.93565,1.72179 1.0452,0.29019 4.955,-1.74113 z m -4.80016,0.0775 -8.24543,2.88257 1.04519,0.27083 8.22609,-2.86318 -1.02585,-0.29019 z m -27.38801,0.0193 -1.85813,0.63841 1.08391,0.30954 1.87748,-0.65777 z m 34.76244,0.58037 -13.06494,4.56563 1.06454,0.29019 13.06496,-4.56563 z m -19.52968,0.46431 -2.14846,0.75448 1.08392,0.29019 2.14845,-0.77384 z m -9.23257,0.0387 -2.69041,0.94794 1.08391,0.29019 2.69042,-0.94795 z m 20.34262,0.87057 -10.14228,3.54026 1.0452,0.27085 2.94204,-1.02531 7.20024,-2.51497 z m -14.16822,0.15476 -3.71625,1.29617 1.08391,0.29019 3.71626,-1.29618 z m 6.09699,1.06403 -4.66468,1.62504 1.06456,0.27085 4.65898,-1.63153 -0.14916,-0.0321 z"
       style="font-size:medium;font-style:normal;font-variant:normal;font-weight:normal;font-stretch:normal;text-indent:0;text-align:start;text-decoration:none;line-height:normal;letter-spacing:normal;word-spacing:normal;text-transform:none;direction:ltr;block-progression:tb;writing-mode:lr-tb;text-anchor:start;baseline-shift:baseline;opacity:0.2;color:#000000;fill:#000000;fill-opacity:1;stroke:none;stroke-width:1;marker:none;visibility:visible;display:inline;overflow:visible;enable-background:accumulate;font-family:Sans;-inkscape-font-specification:Sans"
       inkscape:connector-curvature="0"
       sodipodi:nodetypes="cccccccccccccccccccccccccccccccccccccccccccccccccccccccccccccccccccccccccccccccccccccccccccccccccccccccccccccccccc" />
    <path
       style="opacity:0.2;color:#000000;fill:none;stroke:#000000;stroke-width:0.37153292;stroke-linecap:butt;stroke-linejoin:miter;stroke-miterlimit:4;stroke-opacity:1;stroke-dasharray:none;stroke-dashoffset:0;marker:none;visibility:visible;display:inline;overflow:visible;enable-background:accumulate"
       d="m 406.95558,587.67285 -27.8218,-7.45111"
       id="path7973-4"
       inkscape:connector-curvature="0" />
    <path
       inkscape:connector-curvature="0"
       id="path7975-1"
       d="m 406.95558,588.91098 -27.8218,-7.45111"
       style="opacity:0.2;color:#000000;fill:none;stroke:#000000;stroke-width:0.37153292;stroke-linecap:butt;stroke-linejoin:miter;stroke-miterlimit:4;stroke-opacity:1;stroke-dasharray:none;stroke-dashoffset:0;marker:none;visibility:visible;display:inline;overflow:visible;enable-background:accumulate" />
    <path
       style="opacity:0.2;color:#000000;fill:none;stroke:#000000;stroke-width:0.37153292;stroke-linecap:butt;stroke-linejoin:miter;stroke-miterlimit:4;stroke-opacity:1;stroke-dasharray:none;stroke-dashoffset:0;marker:none;visibility:visible;display:inline;overflow:visible;enable-background:accumulate"
       d="m 406.95558,590.14912 -27.8218,-7.4511"
       id="path7977-8"
       inkscape:connector-curvature="0" />
    <path
       inkscape:connector-curvature="0"
       id="path7979-6"
       d="m 406.95558,591.38725 -27.8218,-7.4511"
       style="opacity:0.2;color:#000000;fill:none;stroke:#000000;stroke-width:0.37153292;stroke-linecap:butt;stroke-linejoin:miter;stroke-miterlimit:4;stroke-opacity:1;stroke-dasharray:none;stroke-dashoffset:0;marker:none;visibility:visible;display:inline;overflow:visible;enable-background:accumulate" />
    <path
       sodipodi:nodetypes="sccsccccccccccccccss"
       inkscape:connector-curvature="0"
       style="opacity:0.2;color:#000000;fill:#000000;fill-opacity:1;fill-rule:nonzero;stroke:none;stroke-width:1;marker:none;visibility:visible;display:inline;overflow:visible;enable-background:accumulate"
       d="m 480.87037,576.44853 c -0.16304,0 -0.31184,0.0236 -0.46453,0.058 l 0.21291,0.32888 c -0.13374,0.27292 -0.21291,0.5655 -0.21291,0.88989 0,1.02818 0.75634,1.87794 1.74199,2.03132 l 2.10974,7.62228 7.41317,1.41222 2.22587,0.59976 1.60651,-0.92862 2.20652,-0.30951 0.36775,-0.9093 1.58716,-0.9286 -3.77431,0.0775 -2.09041,1.74112 -2.88397,-2.47626 -3.52268,0.94797 -1.68393,-0.98667 -2.86462,-6.19065 c 0.1086,-0.25675 0.15485,-0.53556 0.15485,-0.83187 0,-1.18525 -0.94327,-2.14739 -2.12911,-2.14739 z"
       id="path8378-2-7" />
    <path
       style="color:#000000;fill:#ffffff;fill-opacity:0.4;fill-rule:nonzero;stroke:none;stroke-width:0.92009801;marker:none;visibility:visible;display:inline;overflow:visible;enable-background:accumulate"
       d="m 399.13523,584.82514 -17.96824,-5.92169 13.28815,-4.9312 c 8.24287,1.9384 7.577,6.11535 4.68009,10.85289 z"
       id="path7364"
       inkscape:connector-curvature="0"
       sodipodi:nodetypes="cccc" />
    <text
       xml:space="preserve"
       style="font-size:17.19896889px;font-style:normal;font-variant:normal;font-weight:normal;font-stretch:normal;line-height:125%;letter-spacing:0px;word-spacing:0px;fill:#ffffff;fill-opacity:1;stroke:none;font-family:Sans;-inkscape-font-specification:Helvetica"
       x="21.85059"
       y="571.33295"
       id="text7321"
       sodipodi:linespacing="125%"><tspan
         sodipodi:role="line"
         id="tspan7323"
         x="21.85059"
         y="571.33295"
         style="font-style:normal;font-variant:normal;font-weight:normal;font-stretch:normal;fill:#ffffff;font-family:Helvetica Neue LT Std;-inkscape-font-specification:Helvetica Neue LT Std">ENYA</tspan></text>
    <text
       sodipodi:linespacing="125%"
       id="text7325"
       y="580.974"
       x="16.56579"
       style="font-size:12.06140327px;font-style:normal;font-variant:normal;font-weight:normal;font-stretch:normal;line-height:125%;letter-spacing:0px;word-spacing:0px;fill:#ffffff;fill-opacity:1;stroke:none;font-family:Sans;-inkscape-font-specification:Helvetica"
       xml:space="preserve"><tspan
         style="font-style:normal;font-variant:normal;font-weight:normal;font-stretch:normal;fill:#ffffff;font-family:Helvetica Neue LT Std;-inkscape-font-specification:Helvetica Neue LT Std"
         y="580.974"
         x="16.56579"
         id="tspan7327"
         sodipodi:role="line">openData</tspan></text>
    <path
       style="color:#000000;fill:#ff0000;fill-opacity:1;fill-rule:nonzero;stroke:none;stroke-width:2.173913;marker:none;visibility:visible;display:inline;overflow:visible;enable-background:accumulate"
       d="m 1.7650898,555.81001 c -1.25082754,0.31188 -2.0067443,1.56993 -1.69487626,2.82076 l 3.94055326,15.80469 c 0.3118681,1.25084 1.5699199,2.00675 2.8207499,1.69486 l 5.2682293,-1.31351 1.503187,2.82277 3.012443,-3.94864 3.763021,-0.93821 c 1.250829,-0.31188 2.006745,-1.56994 1.694878,-2.82076 l -3.94055,-15.80471 c -0.311869,-1.25082 -1.569924,-2.00674 -2.82075,-1.69487 l -13.5468852,3.37762 z"
       id="rect7329"
       inkscape:connector-curvature="0" />
    <text
       sodipodi:linespacing="125%"
       id="text7351"
       y="576.85339"
       x="8.7749901"
       style="font-size:27.2493px;font-style:normal;font-variant:normal;font-weight:normal;font-stretch:normal;line-height:125%;letter-spacing:0px;word-spacing:0px;fill:#ffffff;fill-opacity:1;stroke:none;font-family:Sans;-inkscape-font-specification:Helvetica"
       xml:space="preserve"
       clip-path="url(#clipPath7376)"
       transform="matrix(0.77564449,0,0,0.77564449,3.950012e-8,123.89973)"><tspan
         style="font-style:normal;font-variant:normal;font-weight:normal;font-stretch:normal;fill:#ffffff;font-family:Helvetica Neue LT Std;-inkscape-font-specification:Helvetica Neue LT Std"
         y="576.85339"
         x="8.7749901"
         id="tspan7353"
         sodipodi:role="line">K</tspan></text>
    <rect
       style="fill:#000000;fill-opacity:1;fill-rule:nonzero;stroke:none;opacity:0.15"
       id="rect4106"
       width="5"
       height="60"
       x="-60"
       y="272.36218"
       inkscape:export-filename="/Users/mayarichman/Projects/kenya-bank/img/sidebar-bg.png"
       inkscape:export-xdpi="90"
       inkscape:export-ydpi="90" />
  </g>
</svg>
