<?xml version="1.0" encoding="UTF-8" standalone="no"?>
<!-- Created with Inkscape (http://www.inkscape.org/) -->

<svg
   xmlns:dc="http://purl.org/dc/elements/1.1/"
   xmlns:cc="http://creativecommons.org/ns#"
   xmlns:rdf="http://www.w3.org/1999/02/22-rdf-syntax-ns#"
   xmlns:svg="http://www.w3.org/2000/svg"
   xmlns="http://www.w3.org/2000/svg"
   xmlns:xlink="http://www.w3.org/1999/xlink"
   xmlns:sodipodi="http://sodipodi.sourceforge.net/DTD/sodipodi-0.dtd"
   xmlns:inkscape="http://www.inkscape.org/namespaces/inkscape"
   width="500"
   height="500"
   id="svg2"
   version="1.1"
   inkscape:version="0.48.2 r9819"
   sodipodi:docname="sprite.svg"
   inkscape:export-filename="/Users/tristen/devseed/kenya-bank/img/sprite.png"
   inkscape:export-xdpi="90"
   inkscape:export-ydpi="90">
  <defs
     id="defs4">
    <linearGradient
       inkscape:collect="always"
       id="linearGradient4342-9">
      <stop
         style="stop-color:#8f8f8c;stop-opacity:1"
         offset="0"
         id="stop4344-7" />
      <stop
         style="stop-color:#5b5b58;stop-opacity:1"
         offset="1"
         id="stop4346-16" />
    </linearGradient>
    <linearGradient
       inkscape:collect="always"
       id="linearGradient7044-0">
      <stop
         style="stop-color:#171716;stop-opacity:1"
         offset="0"
         id="stop7046-5" />
      <stop
         style="stop-color:#72726f;stop-opacity:1"
         offset="1"
         id="stop7048-3" />
    </linearGradient>
    <linearGradient
       inkscape:collect="always"
       id="linearGradient7038-6">
      <stop
         style="stop-color:#72726f;stop-opacity:0"
         offset="0"
         id="stop7040-3" />
      <stop
         style="stop-color:#ffffff;stop-opacity:1"
         offset="1"
         id="stop7042-2" />
    </linearGradient>
    <linearGradient
       inkscape:collect="always"
       id="linearGradient8396-5">
      <stop
         style="stop-color:#a8a8a3;stop-opacity:1;"
         offset="0"
         id="stop8398-9" />
      <stop
         style="stop-color:#a8a8a3;stop-opacity:0;"
         offset="1"
         id="stop8400-5" />
    </linearGradient>
    <linearGradient
       id="linearGradient5297-6"
       inkscape:collect="always">
      <stop
         id="stop5299-3-3"
         offset="0"
         style="stop-color:#ffffff;stop-opacity:1" />
      <stop
         id="stop5301-7-0"
         offset="1"
         style="stop-color:#b6b6b6;stop-opacity:1" />
    </linearGradient>
    <linearGradient
       inkscape:collect="always"
       id="linearGradient3937-9">
      <stop
         style="stop-color:#fbfaf7;stop-opacity:1"
         offset="0"
         id="stop3939-2-1" />
      <stop
         style="stop-color:#cccccc;stop-opacity:1"
         offset="1"
         id="stop3941-0" />
    </linearGradient>
    <linearGradient
       inkscape:collect="always"
       xlink:href="#linearGradient10293"
       id="linearGradient34545"
       gradientUnits="userSpaceOnUse"
       gradientTransform="matrix(1.0004977,0,0,1,-418.28618,903.36218)"
       x1="509"
       y1="40"
       x2="509"
       y2="53" />
    <linearGradient
       inkscape:collect="always"
       id="linearGradient10293">
      <stop
         style="stop-color:#f39f6e;stop-opacity:1;"
         offset="0"
         id="stop10295" />
      <stop
         style="stop-color:#f39f6e;stop-opacity:0;"
         offset="1"
         id="stop10297" />
    </linearGradient>
    <clipPath
       clipPathUnits="userSpaceOnUse"
       id="clipPath7376">
      <path
         inkscape:connector-curvature="0"
         id="path7378"
         d="m 2.2756428,556.84053 c -1.61263,0.40208 -2.587196,2.02402 -2.18512,3.63666 l 5.08036,20.3762 c 0.402076,1.61264 2.02402,2.58721 3.636653,2.18511 l 6.7920672,-1.69344 1.937985,3.63924 3.883794,-5.09078 4.851475,-1.2096 c 1.612633,-0.40207 2.587197,-2.02402 2.185124,-3.63665 l -5.080357,-20.37623 c -0.402079,-1.61262 -2.024025,-2.5872 -3.636654,-2.18512 l -17.4653272,4.35461 z"
         style="color:#000000;fill:#ff0000;fill-opacity:1;fill-rule:nonzero;stroke:none;stroke-width:2.173913;marker:none;visibility:visible;display:inline;overflow:visible;enable-background:accumulate" />
    </clipPath>
    <linearGradient
       inkscape:collect="always"
       xlink:href="#linearGradient3937-9"
       id="linearGradient7389"
       gradientUnits="userSpaceOnUse"
       gradientTransform="matrix(0.5053179,0,0,0.50506653,243.10668,540.49508)"
       x1="341.44745"
       y1="77.554153"
       x2="343.31165"
       y2="69.840584" />
    <linearGradient
       inkscape:collect="always"
       xlink:href="#linearGradient5297-6"
       id="linearGradient7396"
       gradientUnits="userSpaceOnUse"
       gradientTransform="matrix(0.5053179,0,0,0.50506653,243.10668,541.59293)"
       x1="371.68759"
       y1="64.812393"
       x2="366.97559"
       y2="85.182846" />
    <linearGradient
       inkscape:collect="always"
       xlink:href="#linearGradient8396-5"
       id="linearGradient7401"
       gradientUnits="userSpaceOnUse"
       gradientTransform="matrix(0.5053179,0,0,0.50506653,202.68124,533.42415)"
       x1="375.37088"
       y1="129.07449"
       x2="509.526"
       y2="68.416519" />
    <linearGradient
       inkscape:collect="always"
       xlink:href="#linearGradient7038-6"
       id="linearGradient7410"
       gradientUnits="userSpaceOnUse"
       gradientTransform="matrix(0.46415476,0,0,0.46392387,207.34951,531.62011)"
       x1="564.44708"
       y1="81.68457"
       x2="575.07733"
       y2="56.943146" />
    <linearGradient
       inkscape:collect="always"
       xlink:href="#linearGradient7044-0"
       id="linearGradient7413"
       gradientUnits="userSpaceOnUse"
       gradientTransform="matrix(0.49887479,0,0,0.49862663,200.11536,529.36374)"
       x1="476.67953"
       y1="106.434"
       x2="524.17358"
       y2="70.313667" />
    <linearGradient
       inkscape:collect="always"
       xlink:href="#linearGradient4342-9"
       id="linearGradient7418"
       gradientUnits="userSpaceOnUse"
       gradientTransform="matrix(0.4172453,0,0,0.41703774,247.2609,541.71723)"
       x1="588.59375"
       y1="60.359024"
       x2="527.08075"
       y2="95.873573" />
  </defs>
  <sodipodi:namedview
     id="base"
     pagecolor="#ffffff"
     bordercolor="#666666"
     borderopacity="1.0"
     inkscape:pageopacity="0.0"
     inkscape:pageshadow="2"
     inkscape:zoom="4"
     inkscape:cx="428.29446"
     inkscape:cy="483.67873"
     inkscape:document-units="px"
     inkscape:current-layer="layer1"
     showgrid="true"
     inkscape:window-width="1280"
     inkscape:window-height="752"
     inkscape:window-x="29"
     inkscape:window-y="0"
     inkscape:window-maximized="0"
     guidecolor="#0000f4"
     guideopacity="0.49803922"
     showguides="true"
     inkscape:guide-bbox="true">
    <inkscape:grid
       type="xygrid"
       id="grid3004"
       empspacing="5"
       visible="true"
       enabled="true"
       snapvisiblegridlinesonly="true"
       color="#000000"
       opacity="0.03137255"
       empcolor="#000000"
       empopacity="0.1372549" />
  </sodipodi:namedview>
  <metadata
     id="metadata7">
    <rdf:RDF>
      <cc:Work
         rdf:about="">
        <dc:format>image/svg+xml</dc:format>
        <dc:type
           rdf:resource="http://purl.org/dc/dcmitype/StillImage" />
        <dc:title></dc:title>
      </cc:Work>
    </rdf:RDF>
  </metadata>
  <g
     inkscape:groupmode="layer"
     id="layer2"
     inkscape:label="base"
     style="display:none">
    <rect
       style="color:#000000;fill:#ececec;fill-opacity:1;fill-rule:nonzero;stroke:none;stroke-width:2.173913;marker:none;visibility:visible;display:inline;overflow:visible;enable-background:accumulate"
       id="rect7372"
       width="500"
       height="500"
       x="0"
       y="0" />
  </g>
  <g
     inkscape:label="Layer 1"
     inkscape:groupmode="layer"
     id="layer1"
     transform="translate(0,-552.36218)">
    <rect
       inkscape:export-ydpi="90"
       inkscape:export-xdpi="90"
       inkscape:export-filename="/Users/tristen/devseed/kenya-bank/img/sidebar-bg.png"
       y="272.36218"
       x="-60"
       height="1505"
       width="5"
       id="rect4421"
       style="opacity:0.85;color:#000000;fill:#0091d5;fill-opacity:1;fill-rule:nonzero;stroke:none;stroke-width:2.17391300000000021;marker:none;visibility:visible;display:inline;overflow:visible;enable-background:accumulate" />
    <rect
       inkscape:export-ydpi="90"
       inkscape:export-xdpi="90"
       inkscape:export-filename="/Users/tristen/devseed/kenya-bank/img/sidebar-bg.png"
       y="597.36218"
       x="-60"
       height="1179.9999"
       width="5"
       id="rect5191"
       style="color:#000000;fill:#ffffff;fill-opacity:1;fill-rule:nonzero;stroke:none;stroke-width:2.173913;marker:none;visibility:visible;display:inline;overflow:visible;enable-background:accumulate" />
    <path
       sodipodi:nodetypes="csccccssccccsc"
       id="path4082-1-8"
       d="m 462.27403,556.9036 c -5.32014,0.002 -5.29515,0.81337 -9.26337,3.10327 -2.57361,1.48514 -3.58568,3.03654 -3.52209,4.48932 l -0.0127,0 -5.84339,11.72619 0.0126,0 c -0.14726,2.64857 3.33284,5.02483 7.64548,6.18202 6.54174,1.75536 19.15226,1.71874 25.80802,-2.12199 2.24095,-1.29318 3.09604,-2.6994 3.04346,-4.06003 l 0.0127,0 -5.84341,-11.72619 -0.0127,0 c 0.16639,-2.79136 2.22296,-5.42648 -1.60569,-6.45187 -2.43644,-0.65252 -6.28106,-1.14212 -10.419,-1.14073 z"
       style="color:#000000;fill:#3e3e3d;fill-opacity:1;fill-rule:nonzero;stroke:none;stroke-width:1;marker:none;visibility:visible;display:inline;overflow:visible;enable-background:accumulate"
       inkscape:connector-curvature="0" />
    <path
       sodipodi:nodetypes="ccccscsccccc"
       id="path4082-1-5-5"
       d="m 449.59986,561.6775 -5.97123,3.08451 0,11.46198 0.0182,0 c -0.14725,2.64858 3.33858,5.03008 7.6512,6.18727 0.21935,0.0589 0.46134,0.10951 0.69389,0.16429 5.1806,0.239 10.84529,-0.32837 15.50329,-2.15371 6.95718,-2.72627 8.74514,-9.74784 9.73293,-11.31595 l 0,-0.40154 -11.5955,-3.30353 -16.03285,-3.72332 z"
       style="color:#000000;fill:#000000;fill-opacity:0.25333336;fill-rule:nonzero;stroke:none;stroke-width:0.75973278;marker:none;visibility:visible;display:inline;overflow:visible;enable-background:accumulate"
       inkscape:connector-curvature="0" />
    <path
       sodipodi:type="arc"
       style="color:#000000;fill:#000000;fill-opacity:0.23529412;fill-rule:nonzero;stroke:none;stroke-width:0.92009801000000002;marker:none;visibility:visible;display:inline;overflow:visible;enable-background:accumulate"
       id="path4485-9"
       sodipodi:cx="560.40222"
       sodipodi:cy="108.11219"
       sodipodi:rx="66.447914"
       sodipodi:ry="25.814034"
       d="m 626.85014,108.11219 a 66.447914,25.814034 0 1 1 -132.89583,0 66.447914,25.814034 0 1 1 132.89583,0 z"
       transform="matrix(0.5310489,0,0,0.53078472,162.11193,520.49991)" />
    <path
       style="color:#000000;fill:url(#linearGradient7418);fill-opacity:1;fill-rule:nonzero;stroke:none;stroke-width:1;marker:none;visibility:visible;display:inline;overflow:visible;enable-background:accumulate"
       d="m 456.61373,551.68442 -12.49128,7.20694 -13.19539,7.5979 0,1.25111 36.26123,9.7222 25.66059,-14.81787 0,-1.25112 z"
       id="path4206-2"
       inkscape:connector-curvature="0"
       sodipodi:nodetypes="cccccccc" />
    <path
       id="path4206-6-2"
       d="m 438.23959,563.67832 -0.7567,4.56941 5.58061,2.74165 24.11961,6.47596 0,-3.05678 -28.94352,-10.73024 z"
       style="opacity:0.2;color:#000000;fill:#000000;fill-opacity:1;fill-rule:nonzero;stroke:none;stroke-width:1.79999995;marker:none;visibility:visible;display:inline;overflow:visible;enable-background:accumulate"
       inkscape:connector-curvature="0" />
    <path
       style="color:#000000;fill:#72726f;fill-opacity:1;fill-rule:nonzero;stroke:none;stroke-width:1;marker:none;visibility:visible;display:inline;overflow:visible;enable-background:accumulate"
       d="m 444.12275,558.89646 12.48827,-7.20652 36.2437,9.70664 -25.67185,14.81428 -36.25041,-9.72718 z"
       id="path4054-3"
       inkscape:connector-curvature="0"
       sodipodi:nodetypes="cccccc" />
    <path
       sodipodi:nodetypes="ccccc"
       inkscape:connector-curvature="0"
       id="path4332-1"
       d="m 456.5718,552.78395 19.76512,16.77144 -9.19679,5.7239 -34.06719,-8.95734 z"
       style="color:#000000;fill:url(#linearGradient7413);fill-opacity:1;fill-rule:nonzero;stroke:none;stroke-width:1;marker:none;visibility:visible;display:inline;overflow:visible;enable-background:accumulate" />
    <path
       style="opacity:0.3;color:#000000;fill:url(#linearGradient7410);fill-opacity:1;fill-rule:nonzero;stroke:none;stroke-width:2;marker:none;visibility:visible;display:inline;overflow:visible;enable-background:accumulate"
       d="m 457.06317,552.51209 33.77423,9.15057 -19.63376,11.03295 -26.27677,-13.46895 z"
       id="path5739-4"
       inkscape:connector-curvature="0"
       sodipodi:nodetypes="ccccc" />
    <path
       sodipodi:nodetypes="ssccsccs"
       inkscape:connector-curvature="0"
       id="path4082-6-1"
       d="m 461.96741,562.44128 c -0.51975,0.0174 -1.06607,0.14513 -1.43598,0.38491 -0.51028,0.33074 -0.37466,0.71273 -0.36792,1.28806 0.0248,0.26322 0.37883,0.49341 0.81754,0.61112 0.70817,0.19002 2.06444,0.18381 2.78494,-0.23196 0.20152,-0.11629 0.29956,-0.24121 0.32321,-0.36444 0.0849,-0.86887 -0.111,-1.21668 -0.80188,-1.50575 -0.4619,-0.12219 -0.92226,-0.19525 -1.31991,-0.18194 z"
       style="color:#000000;fill:#3e3e3d;fill-opacity:1;fill-rule:nonzero;stroke:none;stroke-width:1;marker:none;visibility:visible;display:inline;overflow:visible;enable-background:accumulate" />
    <path
       sodipodi:nodetypes="zzzzz"
       inkscape:connector-curvature="0"
       id="path4213-4"
       d="m 460.97319,562.95698 c 0.55143,-0.31821 1.5592,-0.26992 1.99451,-0.15333 0.4353,0.11658 0.86467,0.49864 0.34441,0.79886 -0.52025,0.30022 -1.50602,0.30294 -2.01736,0.16574 -0.51135,-0.13722 -0.87298,-0.49307 -0.32156,-0.81127 z"
       style="color:#000000;fill:#72726f;fill-opacity:1;fill-rule:nonzero;stroke:none;stroke-width:1;marker:none;visibility:visible;display:inline;overflow:visible;enable-background:accumulate" />
    <path
       style="color:#000000;fill:#3e3e3d;fill-opacity:1;fill-rule:nonzero;stroke:none;stroke-width:2;marker:none;visibility:visible;display:inline;overflow:visible;enable-background:accumulate"
       d="m 464.06546,563.61457 -0.63501,0.96062 16.99088,5.09473 2.29978,3.51656 c -0.11859,0.242 -0.18879,0.50144 -0.18879,0.78908 0,0.91168 0.67065,1.66517 1.54462,1.80117 l 1.87071,6.75864 6.57325,1.25227 1.97368,0.53175 1.42449,-0.8234 1.95652,-0.27446 0.32609,-0.8062 1.40733,-0.8234 -0.5492,-2.14426 -7.13961,0.0343 -1.57895,-0.68617 -1.52746,0.29162 -2.96911,-4.16841 c 0.10645,-0.23162 0.17162,-0.50034 0.17162,-0.77192 0,-1.00794 -0.82794,-1.81832 -1.83638,-1.81832 -0.072,0 -0.13617,0.009 -0.20595,0.0171 l -2.36843,-3.77387 z"
       id="path8378-1"
       inkscape:connector-curvature="0"
       sodipodi:nodetypes="ccccscccccccccccccssccc" />
    <path
       sodipodi:nodetypes="cccccc"
       inkscape:connector-curvature="0"
       style="color:#000000;fill:#000000;fill-opacity:0.25333336;fill-rule:nonzero;stroke:none;stroke-width:1;marker:none;visibility:visible;display:inline;overflow:visible;enable-background:accumulate"
       d="m 461.8065,567.21292 -13.15726,-3.86674 -8.99871,6.72942 13.6436,3.66173 -0.47428,-1.36255 z"
       id="path4550-6" />
    <path
       style="color:#000000;fill:#3e3e3d;fill-opacity:1;fill-rule:nonzero;stroke:none;stroke-width:1;marker:none;visibility:visible;display:inline;overflow:visible;enable-background:accumulate"
       d="m 450.54951,559.68194 -47.44071,17.04616 -13.49952,3.94208 0,1.01013 27.80828,7.41814 19.29178,-6.79209 2.03083,0.58747 1.53175,-0.88384 2.45852,-1.27976 1.80635,-3.11001 15.36883,-14.06785 0.0343,-1.46788 z"
       id="path4027-2"
       inkscape:connector-curvature="0"
       sodipodi:nodetypes="ccccccccccccc" />
    <path
       inkscape:connector-curvature="0"
       id="path5719-5"
       d="m 417.41756,589.09845 0,-3.99405 -27.80828,-4.43422 0,1.01013 z"
       style="opacity:0.15;color:#000000;fill:#000000;fill-opacity:1;fill-rule:nonzero;stroke:none;stroke-width:2;marker:none;visibility:visible;display:inline;overflow:visible;enable-background:accumulate" />
    <path
       sodipodi:nodetypes="ccsccccccc"
       inkscape:connector-curvature="0"
       id="path3906-4"
       d="m 448.90095,559.12808 11.03899,2.95641 c 0,0 -13.09841,11.85192 -16.60657,15.13821 -1.22514,1.14765 -1.529,2.39753 -1.529,2.39753 l -3.05798,1.76464 -1.529,-0.63285 -19.80225,7.33921 -27.80613,-7.42456 13.49381,-3.94496 z"
       style="color:#000000;fill:url(#linearGradient7401);fill-opacity:1;fill-rule:nonzero;stroke:none;stroke-width:1;marker:none;visibility:visible;display:inline;overflow:visible;enable-background:accumulate" />
    <path
       inkscape:connector-curvature="0"
       id="path5699-7"
       d="m 417.0028,587.0823 -1.89884,0.39528 -25.49468,-6.8074 7.96208,-2.39203 z"
       style="opacity:0.15;color:#000000;fill:#000000;fill-opacity:1;fill-rule:nonzero;stroke:none;stroke-width:2;marker:none;visibility:visible;display:inline;overflow:visible;enable-background:accumulate"
       sodipodi:nodetypes="ccccc" />
    <path
       sodipodi:nodetypes="ccccccsccccc"
       inkscape:connector-curvature="0"
       id="path3863-0-3"
       d="m 432.19327,553.15958 -17.68907,17.52536 0,0.92241 23.6588,7.22084 0.67405,1.23503 1.49662,-0.74463 c 0,0 0.6835,-1.8947 1.33629,-2.4868 5.46045,-4.9529 16.05372,-14.71725 16.05372,-14.71725 l -0.57471,-0.38691 0.0343,-1.13216 -0.48843,-1.08109 z"
       style="color:#000000;fill:#b3b3b3;fill-opacity:1;fill-rule:nonzero;stroke:none;stroke-width:1;marker:none;visibility:visible;display:inline;overflow:visible;enable-background:accumulate" />
    <path
       sodipodi:nodetypes="ccccccc"
       inkscape:connector-curvature="0"
       id="path3089-7-2"
       d="m 439.4069,577.36128 c 0.46738,-1.26016 0.89204,-2.06914 1.94341,-3.37784 l 15.32636,-14.46906 -24.4834,-6.3548 -15.82615,14.48452 -2.36169,3.04199 z"
       style="color:#000000;fill:url(#linearGradient7396);fill-opacity:1;fill-rule:nonzero;stroke:none;stroke-width:1;marker:none;visibility:visible;display:inline;overflow:visible;enable-background:accumulate" />
    <path
       id="path3089-7-1-7"
       d="m 419.49444,564.78103 -3.12357,2.86472 -2.36842,3.03625 25.4005,6.6729 c 0.46738,-1.26016 0.88798,-2.07064 1.93936,-3.37934 l 9.7483,-9.19453 -31.59617,0 z"
       style="color:#000000;fill:#000000;fill-opacity:0.11555553;fill-rule:nonzero;stroke:none;stroke-width:1;marker:none;visibility:visible;display:inline;overflow:visible;enable-background:accumulate"
       inkscape:connector-curvature="0" />
    <path
       sodipodi:nodetypes="ccccccccscccsc"
       inkscape:connector-curvature="0"
       id="path3863-5"
       d="m 414.51999,569.60287 -17.47509,6.73992 -4.94508,-0.99098 0.96676,1.26267 -0.96676,1.26267 0.96676,1.26266 -0.96676,1.26265 24.9027,6.67638 c 0,0 13.72103,-5.07895 20.56177,-7.67541 0.44679,-0.1696 1.27276,0.65979 1.27276,0.65979 l 0.6193,-0.33968 -0.0495,-0.73262 c 0,-2.49952 0.47326,-2.72288 -4.47084,-4.04699 -5.88935,-1.57726 -14.77612,-3.60185 -20.41605,-5.34106 z"
       style="color:#000000;fill:#b3b3b3;fill-opacity:1;fill-rule:nonzero;stroke:none;stroke-width:1;marker:none;visibility:visible;display:inline;overflow:visible;enable-background:accumulate" />
    <path
       style="font-size:medium;font-style:normal;font-variant:normal;font-weight:normal;font-stretch:normal;text-indent:0;text-align:start;text-decoration:none;line-height:normal;letter-spacing:normal;word-spacing:normal;text-transform:none;direction:ltr;block-progression:tb;writing-mode:lr-tb;text-anchor:start;baseline-shift:baseline;opacity:0.2;color:#000000;fill:#000000;fill-opacity:1;fill-rule:nonzero;stroke:none;stroke-width:1;marker:none;visibility:visible;display:inline;overflow:visible;enable-background:accumulate;font-family:Sans;-inkscape-font-specification:Sans"
       d="m 456.9392,560.0552 c -0.50634,0.41717 -1.12474,0.94585 -1.30052,1.10636 -1.56046,1.42488 -4.78257,4.35456 -7.72312,7.05027 -2.94054,2.69572 -5.59712,5.13117 -6.04119,5.57504 -1.65009,1.64926 -2.17108,3.09825 -2.34268,5.37777 -0.23018,-1.26944 -0.6278,-1.95857 -1.07267,-2.44444 -0.71988,-0.78624 -2.65826,-0.50039 -3.21573,-0.30128 -0.0764,0.0273 -0.1636,0.0248 -0.24028,0.0514 -6.12909,2.13372 -19.64471,6.87128 -19.64471,6.87128 l 0.12014,0.30877 c 0,0 13.49958,-4.73793 19.62755,-6.87124 1.0277,-0.35778 2.66247,-0.3846 3.07843,0.14688 0.58449,0.7468 0.78223,1.42224 0.97826,2.04132 -0.16138,-0.23849 -0.34432,-0.49847 -0.56636,-0.77193 -0.28547,-0.35159 -0.60626,-0.71577 -0.94394,-0.94347 -0.48812,-0.32914 -1.52711,-0.0826 -1.87017,0.039 -6.64372,2.35346 -20.40675,7.1486 -20.40675,7.1486 l 0.10298,0.30877 c 0,0 13.77762,-4.79421 20.42391,-7.1486 0.18943,-0.0671 1.11558,-0.3903 1.56124,-0.0732 0.29108,0.20709 0.60017,0.53602 0.87529,0.87486 0.13757,0.16942 0.26007,0.33382 0.37758,0.49746 -0.039,-0.0484 -0.0769,-0.0897 -0.12014,-0.13723 -0.23125,-0.25444 -0.53242,-0.48132 -0.89245,-0.61754 -0.36003,-0.13623 -0.78439,-0.1639 -1.25286,0 -7.09442,2.48199 -21.09271,7.39336 -21.09271,7.39336 l 0.12014,0.30877 c 0,0 13.98159,-4.91153 21.07555,-7.39337 0.40088,-0.14026 0.73489,-0.11156 1.02974,0 0.29486,0.11156 0.54791,0.30376 0.75515,0.53178 0.29121,0.32039 0.44153,0.61965 0.53205,0.8062 -0.073,-0.12071 -0.17165,-0.27708 -0.29177,-0.42882 -0.12012,-0.15174 -0.25169,-0.30546 -0.4119,-0.41169 -0.16021,-0.10624 -0.36795,-0.17097 -0.56636,-0.10293 -6.55768,2.24869 -17.40786,6.08211 -21.02407,7.35903 l 0.12014,0.30877 c 3.61591,-1.2768 14.4522,-5.11139 21.0069,-7.35903 0.0732,-0.0251 0.1622,-0.005 0.27461,0.0687 0.1124,0.0745 0.23571,0.20723 0.34324,0.34308 0.21509,0.27173 0.51534,0.49547 0.51534,0.49547 l 0.8748,-0.39252 0.34328,-0.22302 c -0.0502,-2.793 0.85228,-4.21054 2.05947,-5.42061 0.40574,-0.40554 3.06663,-2.86245 6.00688,-5.55788 2.94023,-2.69544 6.17991,-5.64262 7.74028,-7.06743 0.15964,-0.14578 0.70147,-0.61472 1.21658,-1.0386 z m 0.24411,0.88335 c -0.46586,0.37968 -1.11627,0.90305 -1.2357,1.01208 -1.34942,1.232 -4.63632,4.25414 -7.70596,7.06744 -3.06964,2.81329 -5.9066,5.4062 -6.36728,5.86666 -1.1551,1.15451 -1.44822,1.98557 -1.70042,2.68623 -0.25221,0.70067 -0.44491,0.88813 -0.44491,1.96249 l 0.15447,0 0.17163,-0.0858 c -0.002,-1.0216 0.21064,-1.17078 0.42773,-1.77379 0.22424,-0.62298 0.48708,-1.40488 1.63176,-2.549 0.42092,-0.4207 3.28079,-3.05364 6.35013,-5.86666 3.06935,-2.81303 6.35662,-5.81836 7.70597,-7.05028 0.0735,-0.0671 0.70278,-0.60157 1.01574,-0.86088 z m 0.0922,0.87425 c -0.51088,0.42499 -1.33686,1.25726 -1.48233,1.39007 -1.46806,1.34042 -4.73953,4.31689 -7.74029,7.06744 -3.00075,2.75055 -5.72673,5.26073 -6.17849,5.71227 -0.47527,0.47503 -0.89706,0.87749 -1.20996,1.40663 -0.3129,0.52912 -0.76374,0.96127 -0.76374,2.05847 l 0.15447,0 0.27854,-0.12909 c 0.0401,-0.80526 0.38392,-1.37155 0.62249,-1.775 0.27833,-0.47068 0.67263,-0.83526 1.15846,-1.32085 0.41276,-0.41256 3.16089,-2.962 6.16134,-5.71227 3.00045,-2.75028 6.27232,-5.72711 7.74029,-7.06744 0.12755,-0.11646 1.01039,-1.01964 1.52765,-1.44952 z"
       id="path7955-8"
       inkscape:connector-curvature="0"
       sodipodi:nodetypes="cssscsscccsscsssccssccsssccsssccssccccsccccsscccssssccccssscccsssscccsssscc" />
    <path
       inkscape:connector-curvature="0"
       style="color:#000000;fill:#8f8f8f;fill-opacity:1;fill-rule:nonzero;stroke:none;stroke-width:1;marker:none;visibility:visible;display:inline;overflow:visible;enable-background:accumulate"
       d="m 406.21306,572.76614 -9.18195,3.58518 -4.94279,-0.99493 0.97826,1.26082 -0.97826,1.26081 0.97826,1.26082 -0.97826,1.26082 24.90279,6.67286 0.99543,-1.26077 -1.06408,-1.26083 0.90961,-1.26083 -0.84096,-1.26083 z"
       id="path3863-8-0"
       sodipodi:nodetypes="ccccccccccccc" />
    <path
       sodipodi:nodetypes="csccccscc"
       inkscape:connector-curvature="0"
       id="path3089-4"
       d="m 417.00275,582.02059 c 0,0 12.81788,-4.6294 18.92549,-6.26512 1.26955,-0.34001 3.48335,0.51327 3.48335,0.51327 l -2.16034,-0.68142 -0.92335,-0.26456 -21.81269,-5.72167 c -0.98317,-0.51457 -2.37274,-0.88092 -3.48335,-0.51326 l -18.92549,6.26514 z"
       style="color:#000000;fill:url(#linearGradient7389);fill-opacity:1;fill-rule:nonzero;stroke:none;stroke-width:1;marker:none;visibility:visible;display:inline;overflow:visible;enable-background:accumulate" />
    <path
       inkscape:connector-curvature="0"
       id="path7366-5"
       d="m 432.30225,554.43403 -14.13266,13.13104 0.62896,0.17743 14.13266,-13.13104 -0.62896,-0.17743 z m 1.90215,0.58434 -4.47979,4.16229 0.61181,0.17681 3.27095,-3.03914 1.20884,-1.12316 -0.61181,-0.1768 z m 3.80491,1.15152 -3.02207,2.8079 0.61181,0.17681 3.0043,-2.79139 -0.59404,-0.19332 z m 1.90216,0.58434 -4.51534,4.19533 0.59465,0.17617 4.49756,-4.1788 -0.57687,-0.1927 z m -5.01313,-0.0455 -6.71968,6.24343 0.61118,0.19394 6.71968,-6.24343 -0.61118,-0.19394 z m 6.88097,0.62859 -2.52433,2.34542 0.61119,0.19394 2.52432,-2.34541 -0.61118,-0.19395 z m 1.90214,0.58434 -14.13266,13.13104 0.61119,0.19394 14.13328,-13.14818 -0.61181,-0.1768 z m 1.885,0.58371 -11.25342,10.47243 0.59404,0.19331 9.35066,-8.68796 1.93767,-1.80035 -0.62895,-0.17743 z m 3.8043,1.16867 -8.15961,7.58131 0.59403,0.19333 8.16023,-7.59846 -0.59465,-0.17618 z m -14.93397,-0.20136 -4.35597,4.06381 -6.20415,5.76445 0.59403,0.19332 10.57727,-9.82763 -0.61118,-0.19395 z m 16.83674,0.76855 -4.35535,4.04667 0.6118,0.17681 4.33757,-4.03016 -0.59402,-0.19332 z m -22.08222,-0.56505 -6.98633,6.49119 0.61181,0.1768 6.96856,-6.47468 -0.59404,-0.19331 z m 9.5126,0.51859 -4.05314,3.76588 0.61118,0.19395 4.05314,-3.76589 -0.61118,-0.19394 z m 14.45461,0.63017 -2.70209,2.51059 0.62896,0.17743 2.68431,-2.49408 -0.61118,-0.19394 z m -7.60981,0.0486 -12.21275,11.34719 0.6118,0.1768 12.21211,-11.33005 -0.61116,-0.19394 z m -10.68588,0.57152 -9.10116,8.43958 0.59402,0.19331 9.10179,-8.45671 -0.59465,-0.17618 z m 15.06029,2.38597 -8.05294,7.48221 0.38007,0.40867 8.28405,-7.69694 -0.61118,-0.19394 z m -22.29553,-0.36685 -3.53761,3.28689 0.0343,9.1e-4 -0.0699,0.0318 -2.07989,1.9325 0.59403,0.19331 5.67084,-5.26893 -0.61181,-0.17681 z m 18.75728,1.31923 -9.244,8.58885 0.59403,0.19332 9.244,-8.58886 -0.59403,-0.19331 z m -12.28518,-0.31075 -6.45303,5.99568 0.61118,0.19395 6.45302,-5.99568 -0.61117,-0.19395 z m -12.42802,2.19021 -1.59992,1.48653 0.61181,0.1768 1.58214,-1.47001 -0.59403,-0.19332 z m 18.98839,1.10451 -5.42197,5.03769 0.61181,0.1768 5.42197,-5.0377 -0.61181,-0.17679 z m -6.8981,1.72243 -2.311,2.14721 0.6118,0.17681 2.311,-2.14722 -0.6118,-0.1768 z"
       style="font-size:medium;font-style:normal;font-variant:normal;font-weight:normal;font-stretch:normal;text-indent:0;text-align:start;text-decoration:none;line-height:normal;letter-spacing:normal;word-spacing:normal;text-transform:none;direction:ltr;block-progression:tb;writing-mode:lr-tb;text-anchor:start;baseline-shift:baseline;opacity:0.2;color:#000000;fill:#000000;fill-opacity:1;stroke:none;stroke-width:1;marker:none;visibility:visible;display:inline;overflow:visible;enable-background:accumulate;font-family:Sans;-inkscape-font-specification:Sans" />
    <path
       id="path7394-0"
       d="m 410.98185,569.87577 -2.54005,0.892 0.94394,0.24015 2.54004,-0.89201 z m 2.28261,0.61754 -6.40161,2.23001 0.9611,0.25732 6.38444,-2.24718 z m -5.61214,0.54892 -4.75402,1.64679 0.94394,0.2573 4.73686,-1.66393 z m 7.89476,0.0514 -14.17624,4.9575 0.9611,0.25731 14.15907,-4.9575 z m 2.29977,0.61754 -4.82266,1.68109 0.94394,0.25731 4.80549,-1.68109 z m 2.28261,0.61755 -14.19339,4.95749 0.9611,0.25731 14.15906,-4.97465 z m 2.28261,0.60038 -1.39016,0.48031 0.94394,0.25731 1.39016,-0.4803 z m -20.28608,0.0343 -5.33754,1.86978 0.96111,0.25732 5.33753,-1.86979 z m 3.94738,0.0343 -4.56523,1.57817 0.97827,0.27446 4.54806,-1.59532 z m 18.62131,0.54893 -14.19339,4.9575 0.94394,0.25731 4.13617,-1.44094 0.73799,-0.25731 0.0343,-0.0171 7.29406,-2.55593 0.0858,-0.0171 1.88788,-0.669 -0.92678,-0.25731 z m -12.45997,0.12008 -5.38903,1.88694 0.96111,0.2573 5.37186,-1.88694 z m 8.01488,0.0171 -5.2174,1.81832 0.96111,0.2573 5.20023,-1.81831 z m 9.01032,1.09784 -4.37644,1.52671 0.92678,0.25731 4.3936,-1.54386 z m -4.2563,0.0687 -7.31122,2.55597 0.92677,0.24015 7.29407,-2.53878 -0.90962,-0.25731 z m -24.28494,0.0171 -1.6476,0.56608 0.9611,0.27447 1.66476,-0.58324 z m 30.82385,0.51462 -11.58468,4.04834 0.94393,0.25731 11.58469,-4.04834 z m -17.31696,0.4117 -1.90504,0.669 0.96111,0.25731 1.90503,-0.68616 z m -8.18652,0.0343 -2.38559,0.84054 0.96111,0.25731 2.38559,-0.84055 z m 18.03779,0.77193 -8.99315,3.13915 0.92678,0.24016 2.6087,-0.90914 6.38445,-2.23002 z m -12.56295,0.13723 -3.2952,1.14931 0.9611,0.25731 3.29521,-1.14932 z m 5.4062,0.94347 -4.13617,1.44093 0.94394,0.24016 4.13112,-1.44668 -0.13226,-0.0285 z"
       style="font-size:medium;font-style:normal;font-variant:normal;font-weight:normal;font-stretch:normal;text-indent:0;text-align:start;text-decoration:none;line-height:normal;letter-spacing:normal;word-spacing:normal;text-transform:none;direction:ltr;block-progression:tb;writing-mode:lr-tb;text-anchor:start;baseline-shift:baseline;opacity:0.2;color:#000000;fill:#000000;fill-opacity:1;stroke:none;stroke-width:1;marker:none;visibility:visible;display:inline;overflow:visible;enable-background:accumulate;font-family:Sans;-inkscape-font-specification:Sans"
       inkscape:connector-curvature="0"
       sodipodi:nodetypes="cccccccccccccccccccccccccccccccccccccccccccccccccccccccccccccccccccccccccccccccccccccccccccccccccccccccccccccccccc" />
    <path
       style="opacity:0.2;color:#000000;fill:none;stroke:#000000;stroke-width:0.32943809;stroke-linecap:butt;stroke-linejoin:miter;stroke-miterlimit:4;stroke-opacity:1;stroke-dasharray:none;stroke-dashoffset:0;marker:none;visibility:visible;display:inline;overflow:visible;enable-background:accumulate"
       d="m 417.404,582.796 -24.66958,-6.60689"
       id="path7973-4"
       inkscape:connector-curvature="0" />
    <path
       inkscape:connector-curvature="0"
       id="path7975-1"
       d="m 417.404,583.89385 -24.66958,-6.60689"
       style="opacity:0.2;color:#000000;fill:none;stroke:#000000;stroke-width:0.32943809;stroke-linecap:butt;stroke-linejoin:miter;stroke-miterlimit:4;stroke-opacity:1;stroke-dasharray:none;stroke-dashoffset:0;marker:none;visibility:visible;display:inline;overflow:visible;enable-background:accumulate" />
    <path
       style="opacity:0.2;color:#000000;fill:none;stroke:#000000;stroke-width:0.32943809;stroke-linecap:butt;stroke-linejoin:miter;stroke-miterlimit:4;stroke-opacity:1;stroke-dasharray:none;stroke-dashoffset:0;marker:none;visibility:visible;display:inline;overflow:visible;enable-background:accumulate"
       d="m 417.404,584.99171 -24.66958,-6.60689"
       id="path7977-8"
       inkscape:connector-curvature="0" />
    <path
       inkscape:connector-curvature="0"
       id="path7979-6"
       d="m 417.404,586.08956 -24.66958,-6.60689"
       style="opacity:0.2;color:#000000;fill:none;stroke:#000000;stroke-width:0.32943809;stroke-linecap:butt;stroke-linejoin:miter;stroke-miterlimit:4;stroke-opacity:1;stroke-dasharray:none;stroke-dashoffset:0;marker:none;visibility:visible;display:inline;overflow:visible;enable-background:accumulate" />
    <path
       sodipodi:nodetypes="sccsccccccccccccccss"
       inkscape:connector-curvature="0"
       style="opacity:0.2;color:#000000;fill:#000000;fill-opacity:1;fill-rule:nonzero;stroke:none;stroke-width:1;marker:none;visibility:visible;display:inline;overflow:visible;enable-background:accumulate"
       d="m 482.94422,572.8434 c -0.14457,0 -0.27651,0.0209 -0.4119,0.0514 l 0.18879,0.29162 c -0.11859,0.242 -0.18879,0.50143 -0.18879,0.78907 0,0.91168 0.67065,1.66517 1.54462,1.80117 l 1.87071,6.75867 6.57325,1.25222 1.97368,0.5318 1.42449,-0.8234 1.95652,-0.27445 0.32609,-0.80627 1.40733,-0.82339 -3.34668,0.0687 -1.85356,1.54385 -2.55722,-2.1957 -3.12356,0.84057 -1.49314,-0.87488 -2.54006,-5.48925 c 0.0963,-0.22766 0.13731,-0.47488 0.13731,-0.73762 0,-1.05096 -0.8364,-1.90409 -1.88788,-1.90409 z"
       id="path8378-2-7" />
    <path
       style="color:#000000;fill:#ffffff;fill-opacity:0.4;fill-rule:nonzero;stroke:none;stroke-width:0.92009801;marker:none;visibility:visible;display:inline;overflow:visible;enable-background:accumulate"
       d="m 410.4697,580.27094 -15.93243,-5.25076 11.7826,-4.37249 c 7.30895,1.71877 6.71852,5.42247 4.14983,9.62325 z"
       id="path7364"
       inkscape:connector-curvature="0"
       sodipodi:nodetypes="cccc" />
    <text
       xml:space="preserve"
       style="font-size:17.19896889px;font-style:normal;font-variant:normal;font-weight:normal;font-stretch:normal;line-height:125%;letter-spacing:0px;word-spacing:0px;fill:#ffffff;fill-opacity:1;stroke:none;font-family:Sans;-inkscape-font-specification:Helvetica"
       x="21.85059"
       y="571.33295"
       id="text7321"
       sodipodi:linespacing="125%"><tspan
         sodipodi:role="line"
         id="tspan7323"
         x="21.85059"
         y="571.33295"
         style="font-style:normal;font-variant:normal;font-weight:normal;font-stretch:normal;fill:#ffffff;font-family:Helvetica Neue LT Std;-inkscape-font-specification:Helvetica Neue LT Std">ENYA</tspan></text>
    <text
       sodipodi:linespacing="125%"
       id="text7325"
       y="580.974"
       x="16.56579"
       style="font-size:12.06140327px;font-style:normal;font-variant:normal;font-weight:normal;font-stretch:normal;line-height:125%;letter-spacing:0px;word-spacing:0px;fill:#ffffff;fill-opacity:1;stroke:none;font-family:Sans;-inkscape-font-specification:Helvetica"
       xml:space="preserve"><tspan
         style="font-style:normal;font-variant:normal;font-weight:normal;font-stretch:normal;fill:#ffffff;font-family:Helvetica Neue LT Std;-inkscape-font-specification:Helvetica Neue LT Std"
         y="580.974"
         x="16.56579"
         id="tspan7327"
         sodipodi:role="line">openData</tspan></text>
    <path
       style="color:#000000;fill:#ff0000;fill-opacity:1;fill-rule:nonzero;stroke:none;stroke-width:2.173913;marker:none;visibility:visible;display:inline;overflow:visible;enable-background:accumulate"
       d="m 1.7650898,555.81001 c -1.25082754,0.31188 -2.0067443,1.56993 -1.69487626,2.82076 l 3.94055326,15.80469 c 0.3118681,1.25084 1.5699199,2.00675 2.8207499,1.69486 l 5.2682293,-1.31351 1.503187,2.82277 3.012443,-3.94864 3.763021,-0.93821 c 1.250829,-0.31188 2.006745,-1.56994 1.694878,-2.82076 l -3.94055,-15.80471 c -0.311869,-1.25082 -1.569924,-2.00674 -2.82075,-1.69487 l -13.5468852,3.37762 z"
       id="rect7329"
       inkscape:connector-curvature="0" />
    <text
       sodipodi:linespacing="125%"
       id="text7351"
       y="576.85339"
       x="8.7749901"
       style="font-size:27.2493px;font-style:normal;font-variant:normal;font-weight:normal;font-stretch:normal;line-height:125%;letter-spacing:0px;word-spacing:0px;fill:#ffffff;fill-opacity:1;stroke:none;font-family:Sans;-inkscape-font-specification:Helvetica"
       xml:space="preserve"
       clip-path="url(#clipPath7376)"
       transform="matrix(0.77564449,0,0,0.77564449,3.950012e-8,123.89973)"><tspan
         style="font-style:normal;font-variant:normal;font-weight:normal;font-stretch:normal;fill:#ffffff;font-family:Helvetica Neue LT Std;-inkscape-font-specification:Helvetica Neue LT Std"
         y="576.85339"
         x="8.7749901"
         id="tspan7353"
         sodipodi:role="line">K</tspan></text>
  </g>
</svg>
